<svg id="Layer_1" xmlns="http://www.w3.org/2000/svg" viewBox="-146 226 50 50"><style>.st0{fill:#2c338a}</style><path class="st0" d="M-99.4 238.4c-.2-.5-.5-.7-.8-.9l-19.5-11.2c-.3-.2-.8-.3-1.3-.3s-.9.1-1.3.3l-19.4 11.3c-.7.4-1.2 1.4-1.2 2.2v22.5c0 .4.1 1.1.3 1.4.2.3.5.6.8.8l19.3 11c.3.2 1 .5 1.4.5.5 0 1.1-.3 1.4-.4l19.2-11.1c.7-.4 1.2-1.4 1.2-2.2v-22.6c.1 0 .1-1-.1-1.3zm-21.6 22.5c3.7 0 6.9-2 8.6-5l5.2 3.1c-2.7 4.8-7.9 8-13.8 8-8.8 0-16-7.2-16-16s7.2-16 16-16c5.9 0 11.1 3.3 13.9 8.1l-5.3 3c-1.7-3-4.9-5.1-8.6-5.1-5.5 0-9.9 4.4-9.9 9.9s4.5 10 9.9 10z"/></svg>