<?xml version="1.0" encoding="UTF-8" standalone="no"?>
<!-- Generator: Adobe Illustrator 19.1.1, SVG Export Plug-In . SVG Version: 6.00 Build 0)  -->

<svg
   xmlns:dc="http://purl.org/dc/elements/1.1/"
   xmlns:cc="http://creativecommons.org/ns#"
   xmlns:rdf="http://www.w3.org/1999/02/22-rdf-syntax-ns#"
   xmlns:svg="http://www.w3.org/2000/svg"
   xmlns="http://www.w3.org/2000/svg"
   xmlns:sodipodi="http://sodipodi.sourceforge.net/DTD/sodipodi-0.dtd"
   xmlns:inkscape="http://www.inkscape.org/namespaces/inkscape"
   version="1.1"
   id="Calque_1"
   x="0px"
   y="0px"
   viewBox="0 0 349.9 279.89999"
   xml:space="preserve"
   inkscape:version="0.91 r13725"
   sodipodi:docname="personal.svg"
   width="349.89999"
   height="279.89999"><metadata
     id="metadata4158"><rdf:RDF><cc:Work
         rdf:about=""><dc:format>image/svg+xml</dc:format><dc:type
           rdf:resource="http://purl.org/dc/dcmitype/StillImage" /><dc:title></dc:title></cc:Work></rdf:RDF></metadata><defs
     id="defs4156" /><sodipodi:namedview
     pagecolor="#ffffff"
     bordercolor="#666666"
     borderopacity="1"
     objecttolerance="10"
     gridtolerance="10"
     guidetolerance="10"
     inkscape:pageopacity="0"
     inkscape:pageshadow="2"
     inkscape:window-width="1920"
     inkscape:window-height="1017"
     id="namedview4154"
     showgrid="false"
     fit-margin-top="0"
     fit-margin-left="0"
     fit-margin-right="0"
     fit-margin-bottom="0"
     inkscape:zoom="1.0096211"
     inkscape:cx="215.94999"
     inkscape:cy="199.64999"
     inkscape:window-x="-8"
     inkscape:window-y="-8"
     inkscape:window-maximized="1"
     inkscape:current-layer="Calque_1" /><style
     type="text/css"
     id="style4137">
	.st0{fill:url(#SVGID_1_);}
</style><g
     id="g4139"
     transform="translate(-81.7,-340.7)"><path
       d="m 338,523.1 c -14.7,68.4 -71.7,97.5 -124.7,97.5 -72.7,0 -131.6,-62.5 -131.6,-139.8 0,-77.6 55.6,-140.1 131.6,-140.1 47.5,0 80.5,17.7 104.1,46.2 l -40.3,44.2 c -15.7,-25.2 -36.3,-34.7 -60.2,-34.7 -38,0 -68.7,37.6 -68.7,84.4 0,45.8 30.8,83.1 68.7,83.1 29.5,0 58.6,-19 58.6,-52 l -62.2,0 0,-47.5 124.7,0 0,58.7 z"
       id="path4141"
       inkscape:connector-curvature="0" /></g><g
     id="g4143"
     transform="translate(-81.7,-340.7)"><path
       d="m 331.8,409.3 57.9,0 0,55.6 35.3,0 0,39.3 -35.3,0 0,47.4 c 0,14 3.9,20.7 13.1,20.7 7.5,0 14.4,-4.7 14.4,-4.7 l 14.4,41.6 c 0,0 -18.7,9.3 -42.6,9.3 -46.1,0 -57.3,-30.6 -57.3,-57 l 0,-57.3 -24.2,0 0,-39.3 24.2,0 0,-55.6 z"
       id="path4145"
       inkscape:connector-curvature="0" /></g><linearGradient
     id="SVGID_1_"
     gradientUnits="userSpaceOnUse"
     x1="229.4473"
     y1="540.21167"
     x2="409.38629"
     y2="436.32391"
     gradientTransform="translate(-81.7,-340.7)"><stop
       offset="0"
       style="stop-color:#260431"
       id="stop4148" /><stop
       offset="1"
       style="stop-color:#EA6225"
       id="stop4150" /></linearGradient><rect
     x="131.5"
     y="123.8"
     class="st0"
     width="212.5"
     height="47.5"
     id="rect4152"
     style="fill:url(#SVGID_1_)" /></svg>